<?xml version="1.0" encoding="UTF-8" standalone="no"?>
<!DOCTYPE svg PUBLIC "-//W3C//DTD SVG 1.1//EN"
 "http://www.w3.org/Graphics/SVG/1.1/DTD/svg11.dtd">
<!-- Generated by graphviz version 2.43.0 (0)
 -->
<!-- Title: snakemake_dag Pages: 1 -->
<svg width="274pt" height="332pt"
 viewBox="0.00 0.00 273.50 332.00" xmlns="http://www.w3.org/2000/svg" xmlns:xlink="http://www.w3.org/1999/xlink">
<g id="graph0" class="graph" transform="scale(1 1) rotate(0) translate(4 328)">
<title>snakemake_dag</title>
<polygon fill="white" stroke="transparent" points="-4,4 -4,-328 269.5,-328 269.5,4 -4,4"/>
<!-- 1 -->
<g id="node1" class="node">
<title>1</title>
<path fill="none" stroke="#d85656" stroke-width="2" d="M187.5,-36C187.5,-36 115.5,-36 115.5,-36 109.5,-36 103.5,-30 103.5,-24 103.5,-24 103.5,-12 103.5,-12 103.5,-6 109.5,0 115.5,0 115.5,0 187.5,0 187.5,0 193.5,0 199.5,-6 199.5,-12 199.5,-12 199.5,-24 199.5,-24 199.5,-30 193.5,-36 187.5,-36"/>
<text text-anchor="middle" x="151.5" y="-15.5" font-family="sans" font-size="10.00">deseq_contrasts</text>
</g>
<!-- 2 -->
<g id="node2" class="node">
<title>2</title>
<path fill="none" stroke="#70d856" stroke-width="2" d="M204.5,-108C204.5,-108 98.5,-108 98.5,-108 92.5,-108 86.5,-102 86.5,-96 86.5,-96 86.5,-84 86.5,-84 86.5,-78 92.5,-72 98.5,-72 98.5,-72 204.5,-72 204.5,-72 210.5,-72 216.5,-78 216.5,-84 216.5,-84 216.5,-96 216.5,-96 216.5,-102 210.5,-108 204.5,-108"/>
<text text-anchor="middle" x="151.5" y="-87.5" font-family="sans" font-size="10.00">generate_deseq_object</text>
</g>
<!-- 2&#45;&gt;1 -->
<g id="edge1" class="edge">
<title>2&#45;&gt;1</title>
<path fill="none" stroke="grey" stroke-width="2" d="M151.5,-71.7C151.5,-63.98 151.5,-54.71 151.5,-46.11"/>
<polygon fill="grey" stroke="grey" stroke-width="2" points="155,-46.1 151.5,-36.1 148,-46.1 155,-46.1"/>
</g>
<!-- 3 -->
<g id="node3" class="node">
<title>3</title>
<path fill="none" stroke="#56c9d8" stroke-width="2" d="M166.5,-180C166.5,-180 136.5,-180 136.5,-180 130.5,-180 124.5,-174 124.5,-168 124.5,-168 124.5,-156 124.5,-156 124.5,-150 130.5,-144 136.5,-144 136.5,-144 166.5,-144 166.5,-144 172.5,-144 178.5,-150 178.5,-156 178.5,-156 178.5,-168 178.5,-168 178.5,-174 172.5,-180 166.5,-180"/>
<text text-anchor="middle" x="151.5" y="-159.5" font-family="sans" font-size="10.00">salmon</text>
</g>
<!-- 3&#45;&gt;2 -->
<g id="edge2" class="edge">
<title>3&#45;&gt;2</title>
<path fill="none" stroke="grey" stroke-width="2" d="M151.5,-143.7C151.5,-135.98 151.5,-126.71 151.5,-118.11"/>
<polygon fill="grey" stroke="grey" stroke-width="2" points="155,-118.1 151.5,-108.1 148,-118.1 155,-118.1"/>
</g>
<!-- 4 -->
<g id="node4" class="node">
<title>4</title>
<path fill="none" stroke="#d88d56" stroke-width="2" d="M140.5,-252C140.5,-252 72.5,-252 72.5,-252 66.5,-252 60.5,-246 60.5,-240 60.5,-240 60.5,-228 60.5,-228 60.5,-222 66.5,-216 72.5,-216 72.5,-216 140.5,-216 140.5,-216 146.5,-216 152.5,-222 152.5,-228 152.5,-228 152.5,-240 152.5,-240 152.5,-246 146.5,-252 140.5,-252"/>
<text text-anchor="middle" x="106.5" y="-231.5" font-family="sans" font-size="10.00">generate_index</text>
</g>
<!-- 4&#45;&gt;3 -->
<g id="edge3" class="edge">
<title>4&#45;&gt;3</title>
<path fill="none" stroke="grey" stroke-width="2" d="M117.62,-215.7C122.86,-207.56 129.2,-197.69 134.98,-188.7"/>
<polygon fill="grey" stroke="grey" stroke-width="2" points="138.04,-190.41 140.5,-180.1 132.15,-186.62 138.04,-190.41"/>
</g>
<!-- 5 -->
<g id="node5" class="node">
<title>5</title>
<path fill="none" stroke="#56d8a9" stroke-width="2" d="M225.5,-252C225.5,-252 195.5,-252 195.5,-252 189.5,-252 183.5,-246 183.5,-240 183.5,-240 183.5,-228 183.5,-228 183.5,-222 189.5,-216 195.5,-216 195.5,-216 225.5,-216 225.5,-216 231.5,-216 237.5,-222 237.5,-228 237.5,-228 237.5,-240 237.5,-240 237.5,-246 231.5,-252 225.5,-252"/>
<text text-anchor="middle" x="210.5" y="-231.5" font-family="sans" font-size="10.00">trim</text>
</g>
<!-- 5&#45;&gt;3 -->
<g id="edge4" class="edge">
<title>5&#45;&gt;3</title>
<path fill="none" stroke="grey" stroke-width="2" d="M195.92,-215.7C188.84,-207.3 180.22,-197.07 172.45,-187.86"/>
<polygon fill="grey" stroke="grey" stroke-width="2" points="175.04,-185.49 165.92,-180.1 169.69,-190.01 175.04,-185.49"/>
</g>
<!-- 6 -->
<g id="node6" class="node">
<title>6</title>
<path fill="none" stroke="#d8cb56" stroke-width="2" d="M151,-324C151,-324 12,-324 12,-324 6,-324 0,-318 0,-312 0,-312 0,-300 0,-300 0,-294 6,-288 12,-288 12,-288 151,-288 151,-288 157,-288 163,-294 163,-300 163,-300 163,-312 163,-312 163,-318 157,-324 151,-324"/>
<text text-anchor="middle" x="81.5" y="-303.5" font-family="sans" font-size="10.00">generate_decoy_trancriptome</text>
</g>
<!-- 6&#45;&gt;4 -->
<g id="edge5" class="edge">
<title>6&#45;&gt;4</title>
<path fill="none" stroke="grey" stroke-width="2" d="M87.68,-287.7C90.5,-279.81 93.89,-270.3 97.02,-261.55"/>
<polygon fill="grey" stroke="grey" stroke-width="2" points="100.32,-262.7 100.39,-252.1 93.73,-260.34 100.32,-262.7"/>
</g>
<!-- 7 -->
<g id="node7" class="node">
<title>7</title>
<path fill="none" stroke="#afd856" stroke-width="2" d="M253.5,-324C253.5,-324 193.5,-324 193.5,-324 187.5,-324 181.5,-318 181.5,-312 181.5,-312 181.5,-300 181.5,-300 181.5,-294 187.5,-288 193.5,-288 193.5,-288 253.5,-288 253.5,-288 259.5,-288 265.5,-294 265.5,-300 265.5,-300 265.5,-312 265.5,-312 265.5,-318 259.5,-324 253.5,-324"/>
<text text-anchor="middle" x="223.5" y="-303.5" font-family="sans" font-size="10.00">check_pairing</text>
</g>
<!-- 7&#45;&gt;5 -->
<g id="edge6" class="edge">
<title>7&#45;&gt;5</title>
<path fill="none" stroke="grey" stroke-width="2" d="M220.29,-287.7C218.85,-279.98 217.13,-270.71 215.54,-262.11"/>
<polygon fill="grey" stroke="grey" stroke-width="2" points="218.94,-261.3 213.68,-252.1 212.06,-262.58 218.94,-261.3"/>
</g>
</g>
</svg>
